<svg width="21" height="20" viewBox="0 0 21 20" fill="none" xmlns="http://www.w3.org/2000/svg">
<path d="M5.49967 18.333C5.04134 18.333 4.64898 18.1698 4.32259 17.8434C3.9962 17.517 3.83301 17.1247 3.83301 16.6663V8.33301C3.83301 7.87467 3.9962 7.48231 4.32259 7.15592C4.64898 6.82954 5.04134 6.66634 5.49967 6.66634H6.33301V4.99967C6.33301 3.8469 6.73926 2.86426 7.55176 2.05176C8.36426 1.23926 9.3469 0.833008 10.4997 0.833008C11.6525 0.833008 12.6351 1.23926 13.4476 2.05176C14.2601 2.86426 14.6663 3.8469 14.6663 4.99967V6.66634H15.4997C15.958 6.66634 16.3504 6.82954 16.6768 7.15592C17.0031 7.48231 17.1663 7.87467 17.1663 8.33301V16.6663C17.1663 17.1247 17.0031 17.517 16.6768 17.8434C16.3504 18.1698 15.958 18.333 15.4997 18.333H5.49967ZM10.4997 14.1663C10.958 14.1663 11.3504 14.0031 11.6768 13.6768C12.0031 13.3504 12.1663 12.958 12.1663 12.4997C12.1663 12.0413 12.0031 11.649 11.6768 11.3226C11.3504 10.9962 10.958 10.833 10.4997 10.833C10.0413 10.833 9.64898 10.9962 9.32259 11.3226C8.9962 11.649 8.83301 12.0413 8.83301 12.4997C8.83301 12.958 8.9962 13.3504 9.32259 13.6768C9.64898 14.0031 10.0413 14.1663 10.4997 14.1663ZM7.99967 6.66634H12.9997V4.99967C12.9997 4.30523 12.7566 3.71495 12.2705 3.22884C11.7844 2.74273 11.1941 2.49967 10.4997 2.49967C9.80523 2.49967 9.21495 2.74273 8.72884 3.22884C8.24273 3.71495 7.99967 4.30523 7.99967 4.99967V6.66634Z" fill="#8F95B2"/>
</svg>
