<svg width="20" height="20" viewBox="0 0 20 20" fill="none" xmlns="http://www.w3.org/2000/svg">
<path d="M8.83366 11.5003L7.04199 9.70866C6.88921 9.55588 6.69477 9.47949 6.45866 9.47949C6.22255 9.47949 6.0281 9.55588 5.87533 9.70866C5.72255 9.86144 5.64616 10.0559 5.64616 10.292C5.64616 10.5281 5.72255 10.7225 5.87533 10.8753L8.25033 13.2503C8.41699 13.417 8.61144 13.5003 8.83366 13.5003C9.05588 13.5003 9.25033 13.417 9.41699 13.2503L14.1253 8.54199C14.2781 8.38921 14.3545 8.19477 14.3545 7.95866C14.3545 7.72255 14.2781 7.5281 14.1253 7.37533C13.9725 7.22255 13.7781 7.14616 13.542 7.14616C13.3059 7.14616 13.1114 7.22255 12.9587 7.37533L8.83366 11.5003ZM10.0003 18.3337C8.84755 18.3337 7.76421 18.1149 6.75033 17.6774C5.73644 17.2399 4.85449 16.6462 4.10449 15.8962C3.35449 15.1462 2.76074 14.2642 2.32324 13.2503C1.88574 12.2364 1.66699 11.1531 1.66699 10.0003C1.66699 8.84755 1.88574 7.76421 2.32324 6.75033C2.76074 5.73644 3.35449 4.85449 4.10449 4.10449C4.85449 3.35449 5.73644 2.76074 6.75033 2.32324C7.76421 1.88574 8.84755 1.66699 10.0003 1.66699C11.1531 1.66699 12.2364 1.88574 13.2503 2.32324C14.2642 2.76074 15.1462 3.35449 15.8962 4.10449C16.6462 4.85449 17.2399 5.73644 17.6774 6.75033C18.1149 7.76421 18.3337 8.84755 18.3337 10.0003C18.3337 11.1531 18.1149 12.2364 17.6774 13.2503C17.2399 14.2642 16.6462 15.1462 15.8962 15.8962C15.1462 16.6462 14.2642 17.2399 13.2503 17.6774C12.2364 18.1149 11.1531 18.3337 10.0003 18.3337Z" fill="#4CBFA4"/>
</svg>
