<svg width="20" height="20" viewBox="0 0 20 20" fill="none" xmlns="http://www.w3.org/2000/svg">
<path d="M10.0003 14.167C10.2364 14.167 10.4344 14.0871 10.5941 13.9274C10.7538 13.7677 10.8337 13.5698 10.8337 13.3337C10.8337 13.0975 10.7538 12.8996 10.5941 12.7399C10.4344 12.5802 10.2364 12.5003 10.0003 12.5003C9.76422 12.5003 9.5663 12.5802 9.40658 12.7399C9.24685 12.8996 9.16699 13.0975 9.16699 13.3337C9.16699 13.5698 9.24685 13.7677 9.40658 13.9274C9.5663 14.0871 9.76422 14.167 10.0003 14.167ZM10.0003 10.8337C10.2364 10.8337 10.4344 10.7538 10.5941 10.5941C10.7538 10.4344 10.8337 10.2364 10.8337 10.0003V6.66699C10.8337 6.43088 10.7538 6.23296 10.5941 6.07324C10.4344 5.91352 10.2364 5.83366 10.0003 5.83366C9.76422 5.83366 9.5663 5.91352 9.40658 6.07324C9.24685 6.23296 9.16699 6.43088 9.16699 6.66699V10.0003C9.16699 10.2364 9.24685 10.4344 9.40658 10.5941C9.5663 10.7538 9.76422 10.8337 10.0003 10.8337ZM10.0003 18.3337C8.84755 18.3337 7.76422 18.1149 6.75033 17.6774C5.73644 17.2399 4.85449 16.6462 4.10449 15.8962C3.35449 15.1462 2.76074 14.2642 2.32324 13.2503C1.88574 12.2364 1.66699 11.1531 1.66699 10.0003C1.66699 8.84755 1.88574 7.76422 2.32324 6.75033C2.76074 5.73644 3.35449 4.85449 4.10449 4.10449C4.85449 3.35449 5.73644 2.76074 6.75033 2.32324C7.76422 1.88574 8.84755 1.66699 10.0003 1.66699C11.1531 1.66699 12.2364 1.88574 13.2503 2.32324C14.2642 2.76074 15.1462 3.35449 15.8962 4.10449C16.6462 4.85449 17.2399 5.73644 17.6774 6.75033C18.1149 7.76422 18.3337 8.84755 18.3337 10.0003C18.3337 11.1531 18.1149 12.2364 17.6774 13.2503C17.2399 14.2642 16.6462 15.1462 15.8962 15.8962C15.1462 16.6462 14.2642 17.2399 13.2503 17.6774C12.2364 18.1149 11.1531 18.3337 10.0003 18.3337Z" fill="#D14343"/>
</svg>
