<svg width="24" height="24" viewBox="0 0 24 24" fill="none" xmlns="http://www.w3.org/2000/svg">
<path d="M12.0003 9.3383C12.1209 9.3383 12.233 9.35754 12.3368 9.39603C12.4406 9.43452 12.5394 9.50051 12.633 9.59404L17.1272 14.0883C17.2657 14.2267 17.3365 14.4007 17.3397 14.6104C17.3429 14.82 17.2721 14.9972 17.1272 15.1421C16.9824 15.287 16.8068 15.3594 16.6004 15.3594C16.394 15.3594 16.2183 15.287 16.0734 15.1421L12.0003 11.069L7.92718 15.1421C7.78871 15.2805 7.61468 15.3514 7.40506 15.3546C7.19544 15.3578 7.0182 15.287 6.87333 15.1421C6.72847 14.9972 6.65594 14.8216 6.65594 14.6152C6.65594 14.4088 6.72847 14.2331 6.87333 14.0883L11.3676 9.59404C11.4612 9.50051 11.56 9.43452 11.6638 9.39603C11.7676 9.35754 11.8798 9.3383 12.0003 9.3383Z" fill="#8F95B2"/>
</svg>
