<svg width="360" height="360" viewBox="0 0 360 360" fill="none" xmlns="http://www.w3.org/2000/svg">
<rect x="67" y="95" width="201.073" height="140.117" rx="20" fill="#E7EAF0"/>
<mask id="mask0_292_3277" style="mask-type:alpha" maskUnits="userSpaceOnUse" x="67" y="95" width="202" height="141">
<rect x="67" y="95" width="201.073" height="140.117" rx="20" fill="#E7EAF0"/>
</mask>
<g mask="url(#mask0_292_3277)">
<ellipse cx="133.63" cy="130.029" rx="15.3761" ry="16.0723" fill="#ACBECC"/>
<path d="M85.9524 181.092C93.8905 169.435 111.076 169.435 119.014 181.092L142.657 215.811C151.699 229.088 142.189 247.068 126.126 247.068H78.8407C62.7775 247.068 53.2683 229.088 62.3096 215.811L85.9524 181.092Z" fill="#1C8C71"/>
<path d="M181.113 136.868C189.05 128.123 202.796 128.123 210.733 136.868L277.222 210.124C288.886 222.975 279.767 243.566 262.412 243.566H129.434C112.079 243.566 102.961 222.975 114.625 210.124L181.113 136.868Z" fill="#32A68A"/>
</g>
<path d="M284.5 215.182C284.5 238.87 266.21 257.5 244.34 257.5C222.469 257.5 204.179 238.87 204.179 215.182C204.179 191.494 222.469 172.863 244.34 172.863C266.21 172.863 284.5 191.494 284.5 215.182Z" fill="#E7EAF0" stroke="#97A7B5" stroke-width="15"/>
<rect width="11.9088" height="82.6173" transform="matrix(0.691285 0.722582 -0.691285 0.722582 268.64 180.885)" fill="#97A7B5"/>
</svg>
